<svg width="19" height="14" viewBox="0 0 19 14" fill="none" xmlns="http://www.w3.org/2000/svg">
<rect width="19" height="13" rx="3" fill="#214D94"/>
<path d="M3.35028 4.68V3.7512H5.08549V9H4.04869V4.68H3.35028ZM7.28044 7.8624C7.74124 7.4784 8.10844 7.1592 8.38204 6.9048C8.65564 6.6456 8.88364 6.3768 9.06604 6.0984C9.24844 5.82 9.33964 5.5464 9.33964 5.2776C9.33964 5.0328 9.28204 4.8408 9.16684 4.7016C9.05164 4.5624 8.87404 4.4928 8.63404 4.4928C8.39404 4.4928 8.20924 4.5744 8.07964 4.7376C7.95004 4.896 7.88284 5.1144 7.87804 5.3928H6.89883C6.91803 4.8168 7.08844 4.38 7.41004 4.0824C7.73644 3.7848 8.14924 3.636 8.64844 3.636C9.19564 3.636 9.61564 3.7824 9.90844 4.0752C10.2012 4.3632 10.3476 4.7448 10.3476 5.22C10.3476 5.5944 10.2468 5.952 10.0452 6.2928C9.84364 6.6336 9.61324 6.9312 9.35404 7.1856C9.09484 7.4352 8.75644 7.7376 8.33884 8.0928H10.4628V8.928H6.90603V8.1792L7.28044 7.8624ZM11.9948 5.1336C12.0188 4.6536 12.1868 4.284 12.4988 4.0248C12.8156 3.7608 13.2308 3.6288 13.7444 3.6288C14.0948 3.6288 14.3948 3.6912 14.6444 3.816C14.894 3.936 15.0812 4.1016 15.206 4.3128C15.3356 4.5192 15.4004 4.7544 15.4004 5.0184C15.4004 5.3208 15.3212 5.5776 15.1628 5.7888C15.0092 5.9952 14.8244 6.1344 14.6084 6.2064V6.2352C14.8868 6.3216 15.1028 6.4752 15.2564 6.696C15.4148 6.9168 15.494 7.2 15.494 7.5456C15.494 7.8336 15.4268 8.0904 15.2924 8.316C15.1628 8.5416 14.9684 8.7192 14.7092 8.8488C14.4548 8.9736 14.1476 9.036 13.7876 9.036C13.2452 9.036 12.8036 8.8992 12.4628 8.6256C12.122 8.352 11.942 7.9488 11.9228 7.416H12.902C12.9116 7.6512 12.9908 7.8408 13.1396 7.9848C13.2932 8.124 13.502 8.1936 13.766 8.1936C14.0108 8.1936 14.198 8.1264 14.3276 7.992C14.462 7.8528 14.5292 7.6752 14.5292 7.4592C14.5292 7.1712 14.438 6.9648 14.2556 6.84C14.0732 6.7152 13.79 6.6528 13.406 6.6528H13.1972V5.8248H13.406C14.0876 5.8248 14.4284 5.5968 14.4284 5.1408C14.4284 4.9344 14.366 4.7736 14.2412 4.6584C14.1212 4.5432 13.946 4.4856 13.7156 4.4856C13.49 4.4856 13.3148 4.548 13.19 4.6728C13.07 4.7928 13.0004 4.9464 12.9812 5.1336H11.9948Z" fill="white"/>
</svg>
